<svg width="200" height="200" viewBox="0 0 200 200" fill="none" xmlns="http://www.w3.org/2000/svg">
  <!-- Cat Body -->
  <ellipse cx="100" cy="120" rx="45" ry="35" fill="#FF8C42" stroke="#E67E22" stroke-width="2"/>

  <!-- Cat Head -->
  <circle cx="100" cy="70" r="35" fill="#FF8C42" stroke="#E67E22" stroke-width="2"/>

  <!-- Cat Ears -->
  <path d="M75 45 L85 25 L95 45 Z" fill="#FF8C42" stroke="#E67E22" stroke-width="2"/>
  <path d="M105 45 L115 25 L125 45 Z" fill="#FF8C42" stroke="#E67E22" stroke-width="2"/>
  <path d="M78 42 L85 30 L92 42 Z" fill="#FFB74D"/>
  <path d="M108 42 L115 30 L122 42 Z" fill="#FFB74D"/>

  <!-- Cat Eyes -->
  <ellipse cx="90" cy="65" rx="8" ry="12" fill="#2E2E2E"/>
  <ellipse cx="110" cy="65" rx="8" ry="12" fill="#2E2E2E"/>
  <ellipse cx="90" cy="63" rx="3" ry="5" fill="#4CAF50"/>
  <ellipse cx="110" cy="63" rx="3" ry="5" fill="#4CAF50"/>
  <circle cx="88" cy="61" r="2" fill="#FFFFFF"/>
  <circle cx="108" cy="61" r="2" fill="#FFFFFF"/>

  <!-- Cat Nose -->
  <path d="M100 75 L95 82 L105 82 Z" fill="#E91E63"/>

  <!-- Cat Mouth -->
  <path d="M100 85 Q95 90 90 88" stroke="#2E2E2E" stroke-width="2" fill="none" stroke-linecap="round"/>
  <path d="M100 85 Q105 90 110 88" stroke="#2E2E2E" stroke-width="2" fill="none" stroke-linecap="round"/>

  <!-- Cat Whiskers -->
  <line x1="65" y1="70" x2="45" y2="68" stroke="#2E2E2E" stroke-width="2" stroke-linecap="round"/>
  <line x1="65" y1="78" x2="45" y2="78" stroke="#2E2E2E" stroke-width="2" stroke-linecap="round"/>
  <line x1="135" y1="70" x2="155" y2="68" stroke="#2E2E2E" stroke-width="2" stroke-linecap="round"/>
  <line x1="135" y1="78" x2="155" y2="78" stroke="#2E2E2E" stroke-width="2" stroke-linecap="round"/>

  <!-- Cat Paws -->
  <ellipse cx="75" cy="145" rx="12" ry="8" fill="#FF8C42" stroke="#E67E22" stroke-width="2"/>
  <ellipse cx="125" cy="145" rx="12" ry="8" fill="#FF8C42" stroke="#E67E22" stroke-width="2"/>

  <!-- Cat Tail -->
  <path d="M145 115 Q165 100 170 80 Q175 70 165 75 Q155 85 145 105" fill="#FF8C42" stroke="#E67E22" stroke-width="2"/>

  <!-- Cat Belly Pattern -->
  <ellipse cx="100" cy="125" rx="25" ry="20" fill="#FFB74D"/>

  <!-- Paw Pads -->
  <ellipse cx="75" cy="145" rx="6" ry="4" fill="#E67E22"/>
  <ellipse cx="125" cy="145" rx="6" ry="4" fill="#E67E22"/>
  <circle cx="72" cy="142" r="2" fill="#D84315"/>
  <circle cx="78" cy="142" r="2" fill="#D84315"/>
  <circle cx="122" cy="142" r="2" fill="#D84315"/>
  <circle cx="128" cy="142" r="2" fill="#D84315"/>
</svg>